<svg width="1440" height="820" viewBox="0 0 1440 820" fill="none" xmlns="http://www.w3.org/2000/svg">
<path d="M306 143C306 281.071 194.071 393 56 393C-82.0712 393 -194 281.071 -194 143C-194 4.9288 -82.0712 -107 56 -107C194.071 -107 306 4.9288 306 143Z" fill="#F2DFBF" fill-opacity="0.4"/>
<path d="M589 39.5C589 79.5406 556.541 112 516.5 112C476.459 112 444 79.5406 444 39.5C444 -0.540646 476.459 -33 516.5 -33C556.541 -33 589 -0.540646 589 39.5Z" fill="#F2DFBF" fill-opacity="0.3"/>
<path d="M582 837C582 928.127 508.127 1002 417 1002C325.873 1002 252 928.127 252 837C252 745.873 325.873 672 417 672C508.127 672 582 745.873 582 837Z" fill="#FFF0DA"/>
<path d="M1554 447C1554 535.366 1482.37 607 1394 607C1305.63 607 1234 535.366 1234 447C1234 358.634 1305.63 287 1394 287C1482.37 287 1554 358.634 1554 447Z" fill="#F2DFBF" fill-opacity="0.4"/>
</svg>
