<svg width="31" height="26" viewBox="0 0 31 26" fill="none" xmlns="http://www.w3.org/2000/svg">
<path d="M28.6253 0.833307H0.916992V3.74997H4.27116L9.05449 16.875C9.35536 17.726 9.9121 18.4631 10.6484 18.9853C11.3846 19.5074 12.2644 19.7891 13.167 19.7916H25.7087V16.875H13.167C12.8673 16.8748 12.5749 16.7824 12.3296 16.6102C12.0843 16.4379 11.8981 16.1943 11.7962 15.9125L11.1253 13.9583H24.6587C25.2916 13.9574 25.9071 13.7506 26.4122 13.3691C26.9173 12.9877 27.2846 12.4523 27.4587 11.8437L30.0837 2.68539C30.1429 2.49389 30.1621 2.29222 30.1399 2.09298C30.1178 1.89374 30.0548 1.7012 29.9549 1.5274C29.855 1.3536 29.7203 1.20226 29.5593 1.08284C29.3983 0.963413 29.2144 0.878468 29.0191 0.833307C28.8887 0.812075 28.7557 0.812075 28.6253 0.833307ZM24.6149 11.0416H10.0316L7.37741 3.74997H26.6857L24.6149 11.0416Z" fill="#B05B3B"/>
<path d="M13.3125 25.625C14.5206 25.625 15.5 24.6456 15.5 23.4375C15.5 22.2294 14.5206 21.25 13.3125 21.25C12.1044 21.25 11.125 22.2294 11.125 23.4375C11.125 24.6456 12.1044 25.625 13.3125 25.625Z" fill="#B05B3B"/>
<path d="M22.0625 25.625C23.2706 25.625 24.25 24.6456 24.25 23.4375C24.25 22.2294 23.2706 21.25 22.0625 21.25C20.8544 21.25 19.875 22.2294 19.875 23.4375C19.875 24.6456 20.8544 25.625 22.0625 25.625Z" fill="#B05B3B"/>
</svg>
