<svg width="86" height="86" viewBox="0 0 86 86" fill="none" xmlns="http://www.w3.org/2000/svg">
<g clip-path="url(#clip0_104_1825)">
<path d="M73.4584 39.4167C73.4584 39.4167 77.0418 37.625 86.0001 37.625C80.6251 23.2917 67.1338 22.713 67.1338 22.713L65.3798 22.5033L69.8751 8.95833C51.9584 8.95833 46.5834 16.125 46.5834 16.125C47.0045 12.6151 48.8552 6.24217 51.9584 5.375C34.0417 5.375 32.2501 17.9167 32.2501 17.9167C32.2501 17.9167 26.8751 14.3333 26.8751 5.375C21.5001 8.95833 17.9167 12.5417 17.9167 21.5C17.9167 26.875 19.7084 30.4583 19.7084 30.4583L59.1251 82.4167H71.6668C71.6668 77.0417 68.0834 73.4583 68.0834 73.4583C73.4584 73.4583 78.8334 77.0417 78.8334 77.0417C78.8334 64.5 73.4584 57.3333 73.4584 57.3333C80.6251 57.3333 86.0001 60.9167 86.0001 60.9167C86.0001 46.5833 73.4584 39.4167 73.4584 39.4167Z" fill="#FBC02D"/>
<path d="M71.6667 50.1667C71.6667 61.3646 62.7084 71.6667 62.7084 71.6667V82.2017L34.0417 82.4167C34.0417 82.4167 34.0417 78.8333 34.0417 75.25C34.0417 75.25 16.1788 75.25 8.34925 71.6667C8.33133 71.6667 8.33133 71.6488 8.31341 71.6488L7.16675 68.0833H5.37508C4.8555 68.0833 1.79175 62.7083 1.79175 57.3333V55.5417C1.79175 53.75 3.08175 53.75 3.58341 53.75H14.3334V39.4167C14.3334 39.4167 10.983 37.8042 10.7501 35.8333C10.7501 35.8333 12.4163 32.5725 14.7813 30.4583C23.0767 23.0767 32.2501 21.5 43.0001 21.5C60.9167 21.5 71.6667 35.8333 71.6667 50.1667Z" fill="#673AB7"/>
<path d="M1.79167 57.3333C1.79167 57.3333 3.58333 54.7389 3.58333 53.7499C3.58333 52.7609 2.78067 51.9583 1.79167 51.9583C0.802667 51.9583 0 52.8541 0 53.9739C0 56.2135 1.79167 57.3333 1.79167 57.3333Z" fill="#673AB7"/>
<path d="M25.0833 51.9584V34.0417L17.9166 35.8334L14.3333 41.2084C14.3333 41.2084 17.9166 41.5184 17.9166 44.7917C17.9166 46.5834 17.9166 51.9584 17.9166 51.9584H25.0833Z" fill="#512DA8"/>
<path d="M31.4312 57.3333H21.5C21.5 57.3333 21.5 54.0456 21.5 53.3612C21.5 51.7791 21.5 48.7656 21.5 44.7916C21.5 34.0416 34.0417 34.0416 34.0417 48.375C34.0417 55.5416 31.4312 57.3333 31.4312 57.3333Z" fill="white"/>
<path d="M24.8683 51.9583C26.9646 51.9583 28.6667 49.5503 28.6667 46.5833C28.6667 43.6163 26.9646 41.2083 24.8683 41.2083C21.9479 41.2083 21.6075 44.1108 21.5896 44.3903C21.5358 45.0568 21.5 45.7878 21.5 46.5833C21.5 47.3788 21.5358 48.0883 21.5717 48.7333C21.5717 48.7333 21.724 51.9583 24.8683 51.9583Z" fill="#AB47BC"/>
<path d="M25.0833 46.5833C25.0833 48.5667 24.1875 50.1667 23.0767 50.1667C22.4675 50.1667 21.5 49.57 21.5 46.5833C21.5 43.5966 22.4854 43 23.0767 43C24.1875 43 25.0833 44.6 25.0833 46.5833Z" fill="black"/>
<path d="M26.8749 41.2083C26.3997 41.2083 25.944 41.397 25.608 41.733C25.272 42.069 25.0833 42.5247 25.0833 42.9999C25.0833 43.4751 25.272 43.9308 25.608 44.2668C25.944 44.6028 26.3997 44.7916 26.8749 44.7916C27.3501 44.7916 27.8058 44.6028 28.1418 44.2668C28.4778 43.9308 28.6666 43.4751 28.6666 42.9999C28.6666 42.5247 28.4778 42.069 28.1418 41.733C27.8058 41.397 27.3501 41.2083 26.8749 41.2083Z" fill="white"/>
<path d="M60.0208 43C59.308 43 58.6244 43.3775 58.1204 44.0495C57.6164 44.7215 57.3333 45.633 57.3333 46.5833C57.3333 47.5337 57.6164 48.4451 58.1204 49.1171C58.6244 49.7891 59.308 50.1667 60.0208 50.1667C60.7335 50.1667 61.4171 49.7891 61.9211 49.1171C62.4251 48.4451 62.7083 47.5337 62.7083 46.5833C62.7083 45.633 62.4251 44.7215 61.9211 44.0495C61.4171 43.3775 60.7335 43 60.0208 43ZM66.2916 48.375C64.4999 48.375 64.4999 49.9427 64.4999 50.6146C64.4999 51.5104 65.8437 53.75 66.2916 53.75C66.7395 53.75 68.0833 51.7344 68.0833 50.6146C68.0833 49.9427 68.0833 48.375 66.2916 48.375ZM60.9166 53.75C59.1249 53.75 59.1249 55.3177 59.1249 55.9896C59.1249 56.8854 60.4687 59.125 60.9166 59.125C61.3645 59.125 62.7083 57.1094 62.7083 55.9896C62.7083 55.3177 62.7083 53.75 60.9166 53.75Z" fill="#512DA8"/>
<path d="M41.2083 50.1667C34.0416 50.1667 32.2499 55.5417 26.8749 55.5417C22.3958 55.5417 21.4999 52.6303 21.4999 51.9584C19.9878 51.9584 17.9166 51.9584 17.9166 51.9584C17.9166 51.9584 17.9166 51.9584 14.3333 50.1667C14.3333 50.1667 8.95825 53.7501 3.58325 53.7501C3.58325 53.7501 10.7499 60.9167 25.0833 60.9167C32.2499 60.9167 35.8333 57.3334 35.8333 57.3334C37.1448 58.3744 38.9239 59.1251 41.2083 59.1251C45.166 59.1251 48.3749 57.1202 48.3749 54.6459C48.3749 52.1716 45.166 50.1667 41.2083 50.1667Z" fill="#764EBE"/>
<path d="M39.4167 64.4999V68.0833C37.213 68.0833 35.2063 67.6533 33.5938 66.8828C25.9076 71.0753 16.8597 71.6666 8.95841 71.6666H8.34925C8.33133 71.6666 8.33133 71.6487 8.31341 71.6487L7.16675 68.0833H8.95841C17.0747 68.0833 25.5672 67.5099 32.6801 63.2816L33.6476 62.7083L34.5792 63.3353C35.708 64.0699 37.4638 64.4999 39.4167 64.4999ZM55.5417 68.0833C55.5417 68.0833 53.7501 75.2499 41.2084 75.2499V78.8333C43.0001 78.8333 55.5417 78.8333 55.5417 68.0833Z" fill="#4A148C"/>
<path d="M34.0417 75.25H41.2084V82.4167H34.0417V75.25Z" fill="#FBC02D"/>
<path d="M34.0417 75.25H41.2084V78.8333H34.0417V75.25Z" fill="#FF8F00"/>
<path d="M27.1025 37.6252C21.4999 37.6252 21.6003 41.2085 14.3333 41.2085C14.3333 41.2085 19.3804 32.2502 26.6474 32.2502C35.7329 32.2502 42.9999 30.4585 42.9999 30.4585C42.9999 30.4585 41.2083 37.6252 35.8333 37.6252C33.5865 37.6252 30.4135 37.6252 27.1025 37.6252Z" fill="#311B92"/>
<path d="M43 30.4584C43 30.4584 39.4167 34.0417 28.6667 34.0417C25.0833 34.0417 23.5353 35.0755 21.7598 36.2276C19.608 37.6251 17.0585 41.2084 14.3333 41.2084C12.7441 41.2084 10.75 38.073 10.75 35.8692C12.5417 35.8692 14.4355 34.427 15.6771 33.3699C18.3055 31.1303 21.5 28.6667 26.875 28.6667C35.8333 28.6667 43 30.4584 43 30.4584Z" fill="#7E57C2"/>
<path d="M85.9999 0.0716169C85.3012 0.143284 82.972 1.21828 80.607 3.35037C80.4637 3.47578 80.3203 3.6012 80.1949 3.74453C79.4424 4.4612 78.6899 5.30328 77.9912 6.27078C77.9374 6.34245 77.8837 6.41412 77.8478 6.48578C77.1849 7.39953 76.6116 8.4387 76.1278 9.58537C75.877 10.1766 75.662 10.8037 75.4828 11.4487C75.3395 11.9683 75.2141 12.5237 75.1424 13.0791C75.0708 13.3299 75.0349 13.5808 75.017 13.8674C74.9633 14.3691 74.9274 14.7274 74.8737 15.0141C74.7303 16.322 74.7841 15.9099 74.4258 18.902L74.3183 19.8516C74.2824 20.2279 74.2108 20.6579 74.1033 21.1774C74.0316 21.5537 73.942 21.9837 73.8166 22.4316C73.6195 23.1124 73.3866 23.847 73.0462 24.6533C72.5624 25.8358 71.8995 27.1258 70.9678 28.4695C70.5737 29.0608 70.1437 29.652 69.6241 30.2612C69.1403 30.8524 68.5849 31.4437 67.9758 32.0349C67.5099 32.5008 67.0083 32.9666 66.4708 33.4145C64.8941 34.7583 62.9949 36.0841 60.7195 37.3204C60.182 37.6249 57.9245 38.0549 54.4845 36.6216C49.3245 34.4537 46.7087 30.4583 46.6012 27.4483C46.5474 26.7495 46.637 26.1941 46.852 25.7104C47.2999 24.4383 48.8587 23.1841 49.2708 22.8616C49.8262 22.4316 50.3099 22.0912 50.8295 21.7508C50.9549 21.6433 51.0803 21.5537 51.2237 21.4641C51.2595 21.4283 51.3133 21.3924 51.367 21.3566C51.6537 21.1595 52.657 20.5324 53.9649 19.7441H53.9828C55.6133 18.7408 57.7095 17.5224 59.2683 16.5549C59.2862 16.537 59.322 16.5191 59.3399 16.5191C60.4687 15.8562 61.3108 15.3187 61.5258 15.1574C61.6691 15.032 61.7945 14.9424 61.9378 14.8349C62.0633 14.7274 62.1887 14.62 62.2962 14.5125C63.1741 13.7062 63.837 12.9179 64.3745 12.1654V12.1116C64.9299 11.3054 65.342 10.5349 65.7003 9.76453C65.8258 9.49578 65.9512 9.22703 66.0766 8.95828C66.4887 8.13412 66.8828 7.32787 67.4562 6.52162C67.6533 6.23495 67.8862 5.93037 68.1549 5.6437C68.5491 5.15995 69.0149 4.69412 69.5883 4.22828C69.8212 4.04912 70.072 3.86995 70.3408 3.67287C71.1291 3.09953 71.9353 2.6337 72.7953 2.22162C72.8491 2.2037 72.9028 2.18578 72.9387 2.14995C73.2433 2.00662 73.5478 1.8812 73.8703 1.7737C74.4974 1.50495 75.1424 1.28995 75.7874 1.09287C76.307 0.931617 76.8266 0.8062 77.3641 0.680784C78.8512 0.358284 80.3741 0.1612 81.8791 0.0716169C83.2945 -0.0358831 84.6562 -0.0179664 85.9999 0.0716169Z" fill="#FF8F00"/>
<path d="M69.6242 30.2613C69.1404 30.8526 68.585 31.4438 67.9758 32.0351C67.51 32.5009 67.0083 32.9667 66.4708 33.4147C57.2258 31.6947 52.46 26.5526 50.8296 21.7509C50.955 21.6434 51.0804 21.5538 51.2238 21.4642C51.2596 21.4284 51.3133 21.3926 51.3671 21.3567C51.6538 21.1597 52.6571 20.5326 53.965 19.7442C54.9683 24.0622 59.5371 29.2222 69.6242 30.2613ZM74.1033 21.1776C74.0317 21.5538 73.9421 21.9838 73.8167 22.4317C73.6196 23.1126 73.3867 23.8472 73.0463 24.6534C65.9333 23.5605 61.5975 20.3892 59.34 16.5192C60.4688 15.8563 61.3108 15.3188 61.5258 15.1576C61.6692 15.0322 61.7946 14.9426 61.9379 14.8351C62.0633 14.7276 62.1888 14.6201 62.2963 14.5126C64.285 18.0601 68.37 20.3892 74.1033 21.1776ZM75.4829 11.4488C75.3396 11.9684 75.2142 12.5238 75.1425 13.0792C75.0708 13.3301 75.035 13.5809 75.0171 13.8676C74.9633 14.3692 74.9275 14.7276 74.8738 15.0142C70.8604 13.7422 68.0117 11.4667 66.0767 8.95841C66.4888 8.13424 66.8829 7.32799 67.4563 6.52174C67.6533 6.23508 67.8863 5.93049 68.155 5.64383C69.5346 7.86549 71.81 10.1409 75.4829 11.4488ZM80.195 3.74466C79.4425 4.46132 78.69 5.30341 77.9912 6.27091C77.9375 6.34258 77.8838 6.41424 77.8479 6.48591C76.11 5.21382 74.82 3.56549 73.8704 1.77382C74.4975 1.50507 75.1425 1.29007 75.7875 1.09299C76.3071 0.931742 76.8267 0.806325 77.3642 0.680908C78.045 1.82757 78.9767 2.90257 80.195 3.74466Z" fill="#FF6F00"/>
</g>
<defs>
<clipPath id="clip0_104_1825">
<rect width="86" height="86" fill="white"/>
</clipPath>
</defs>
</svg>
