<svg width="23" height="27" viewBox="0 0 23 27" fill="none" xmlns="http://www.w3.org/2000/svg">
<path d="M1 25.5C1 25.5 4.3917 25.9105 6.5 25.5C8.56428 25.0981 9.67917 24.5523 11.5 23.5C14.2521 21.9095 15.9422 20.9227 18 18.5C19.543 16.6834 20.1765 15.2367 21 13C21.8796 10.6109 22 9.04591 22 6.5C22 4.5 22 1 22 1L10.5 1.5L5 4L1.5 9L1 25.5Z" fill="#FFF0DA" stroke="#FFF0DA"/>
<g clip-path="url(#clip0_1_2866)">
<path d="M7.98684 13.5647L7.30392 16.5219C7.28277 16.6114 7.28912 16.7053 7.32214 16.7912C7.35515 16.877 7.4133 16.951 7.48898 17.0033C7.56467 17.0556 7.65437 17.0839 7.74637 17.0844C7.83838 17.085 7.92841 17.0578 8.00471 17.0064L10.5003 15.3426L12.996 17.0064C13.074 17.0582 13.1661 17.0849 13.2598 17.0828C13.3535 17.0808 13.4443 17.0501 13.52 16.9949C13.5957 16.9397 13.6527 16.8626 13.6834 16.774C13.714 16.6854 13.7167 16.5896 13.6913 16.4994L12.853 13.5661L14.932 11.6952C14.9985 11.6352 15.0461 11.5571 15.0687 11.4704C15.0914 11.3837 15.0881 11.2923 15.0593 11.2074C15.0306 11.1225 14.9775 11.048 14.9068 10.9929C14.8361 10.9379 14.7509 10.9048 14.6615 10.8977L12.0486 10.6896L10.9179 8.18665C10.8818 8.10605 10.8232 8.03761 10.7491 7.98959C10.675 7.94157 10.5886 7.91602 10.5003 7.91602C10.412 7.91602 10.3256 7.94157 10.2515 7.98959C10.1775 8.03761 10.1188 8.10605 10.0828 8.18665L8.95209 10.6896L6.33913 10.8972C6.25134 10.9042 6.16741 10.9363 6.09738 10.9897C6.02736 11.0431 5.9742 11.1155 5.94427 11.1984C5.91434 11.2812 5.90891 11.3709 5.92862 11.4567C5.94833 11.5426 5.99235 11.6209 6.05542 11.6824L7.98684 13.5647ZM9.29446 11.582C9.37627 11.5755 9.45484 11.5472 9.52193 11.4999C9.58903 11.4527 9.64217 11.3883 9.6758 11.3134L10.5003 9.48877L11.3249 11.3134C11.3585 11.3883 11.4116 11.4527 11.4787 11.4999C11.5458 11.5472 11.6244 11.5755 11.7062 11.582L13.5267 11.7264L12.0275 13.0757C11.8973 13.193 11.8455 13.3736 11.8932 13.5423L12.4675 15.5521L10.7552 14.4104C10.68 14.3599 10.5915 14.333 10.501 14.333C10.4105 14.333 10.322 14.3599 10.2469 14.4104L8.45755 15.6034L8.9388 13.5198C8.95644 13.4432 8.95407 13.3633 8.93192 13.2878C8.90976 13.2124 8.86857 13.1439 8.8123 13.089L7.41988 11.7314L9.29446 11.582Z" fill="#D94E4E"/>
</g>
<defs>
<clipPath id="clip0_1_2866">
<rect width="11" height="11" fill="white" transform="translate(5 7)"/>
</clipPath>
</defs>
</svg>
