<svg width="37" height="32" viewBox="0 0 37 32" fill="none" xmlns="http://www.w3.org/2000/svg">
<path d="M22.5967 3.47806C22.5967 4.63963 21.9377 5.66769 20.9275 6.29938H16.2229C15.2127 5.66769 14.5537 4.63963 14.5537 3.47806C14.5537 1.55794 16.3541 0 18.5751 0C20.7972 0 22.5967 1.55794 22.5967 3.47806Z" fill="#F95428"/>
<path d="M18.027 3.47806C18.027 2.09563 18.9604 0.901063 20.3121 0.340313C19.7864 0.122313 19.1974 0 18.5752 0C16.3541 0 14.5537 1.55794 14.5537 3.47806C14.5537 4.63963 15.2127 5.66769 16.2229 6.29938H19.6961C18.686 5.66769 18.027 4.63963 18.027 3.47806Z" fill="#E54728"/>
<path d="M30.3046 19.0066H29.2355H23.13H13.8694H7.76383H6.84526H3.19238L8.07161 32H11.1861H15.3446H21.6538H25.8133H28.9268L33.807 19.0066H30.3046Z" fill="#F7B239"/>
<path d="M30.6 13.8571C29.8715 13.2279 28.8662 12.8382 27.7565 12.8382H24.8668C26.9846 12.8382 28.7021 11.3537 28.7021 9.52202V9.19908C28.7021 7.36746 26.9846 5.88208 24.8668 5.88208H20.9273H16.2227H12.2842C10.1664 5.88208 8.44896 7.36746 8.44896 9.19908V9.52202C8.44896 11.3536 10.1664 12.8382 12.2842 12.8382H9.39456C7.17441 12.8382 5.37305 14.3961 5.37305 16.3163C5.37305 17.2776 5.82362 18.1463 6.55112 18.7763C6.64471 18.8572 6.74313 18.934 6.84539 19.0066H7.76396H13.8695H23.1302H29.2357H30.3048C31.203 18.369 31.7781 17.4011 31.7781 16.3163C31.778 15.3558 31.3275 14.4871 30.6 13.8571Z" fill="#B27214"/>
<path d="M11.906 18.7763C11.9996 18.8573 12.098 18.934 12.2003 19.0066H6.84539C6.74313 18.934 6.64471 18.8573 6.55112 18.7763C5.82362 18.1463 5.37305 17.2776 5.37305 16.3163C5.37305 14.3962 7.17441 12.8383 9.39456 12.8383H14.7494C12.5293 12.8383 10.7279 14.3962 10.7279 16.3163C10.7279 17.2776 11.1785 18.1463 11.906 18.7763Z" fill="#995C0D"/>
<path d="M17.6394 12.8382H12.2845C10.1667 12.8382 8.44922 11.3537 8.44922 9.52202V9.19908C8.44922 7.36746 10.1667 5.88208 12.2845 5.88208H17.6394C15.5216 5.88208 13.8041 7.36746 13.8041 9.19908V9.52202C13.8041 11.3537 15.5215 12.8382 17.6394 12.8382Z" fill="#995C0D"/>
<path d="M13.8694 19.0066H7.76383H6.84527H3.19238L8.07161 32H11.1861H15.3446L13.8694 19.0066Z" fill="#E09B2D"/>
</svg>
