<svg width="18" height="18" viewBox="0 0 18 18" fill="none" xmlns="http://www.w3.org/2000/svg">
<path d="M17.783 7.35599H9.45601V10.807H14.248C13.802 13 11.935 14.26 9.45601 14.26C8.76235 14.2612 8.07527 14.1254 7.43419 13.8605C6.79312 13.5955 6.21065 13.2066 5.7202 12.7161C5.22975 12.2256 4.84097 11.643 4.57615 11.0019C4.31133 10.3608 4.1757 9.67365 4.17701 8.97999C4.17583 8.28641 4.31156 7.59941 4.57644 6.9584C4.84131 6.31739 5.23011 5.73497 5.72055 5.24453C6.21099 4.75409 6.79341 4.36529 7.43442 4.10041C8.07544 3.83554 8.76243 3.6998 9.45601 3.70099C10.715 3.70099 11.853 4.14799 12.746 4.87899L15.346 2.27999C13.762 0.89899 11.731 0.0469894 9.45601 0.0469894C8.28182 0.0435572 7.11853 0.272299 6.03306 0.720059C4.94759 1.16782 3.96135 1.82576 3.13107 2.65604C2.30079 3.48633 1.64284 4.47257 1.19508 5.55804C0.747324 6.64351 0.518582 7.8068 0.522014 8.98099C0.518449 10.1552 0.7471 11.3186 1.19481 12.4041C1.64253 13.4896 2.30046 14.4759 3.13077 15.3062C3.96108 16.1365 4.94737 16.7945 6.03291 17.2422C7.11844 17.6899 8.28178 17.9186 9.45601 17.915C13.923 17.915 17.985 14.666 17.985 8.98099C17.985 8.45299 17.904 7.88399 17.783 7.35599Z" fill="#734939"/>
</svg>
