<svg width="253" height="34" viewBox="0 0 253 34" fill="none" xmlns="http://www.w3.org/2000/svg">
<path d="M119.116 25.292C118.892 25.4787 118.472 25.7307 117.856 26.048C117.259 26.3653 116.521 26.6453 115.644 26.888C114.767 27.1307 113.796 27.2427 112.732 27.224C111.108 27.1867 109.652 26.8973 108.364 26.356C107.095 25.796 106.012 25.04 105.116 24.088C104.239 23.136 103.567 22.044 103.1 20.812C102.633 19.58 102.4 18.264 102.4 16.864C102.4 15.296 102.633 13.8587 103.1 12.552C103.585 11.2453 104.267 10.116 105.144 9.164C106.04 8.212 107.104 7.47467 108.336 6.952C109.568 6.42933 110.931 6.168 112.424 6.168C113.805 6.168 115.028 6.35467 116.092 6.728C117.156 7.10133 118.024 7.50267 118.696 7.932L117.1 11.768C116.633 11.4133 116.008 11.0493 115.224 10.676C114.459 10.284 113.572 10.088 112.564 10.088C111.78 10.088 111.024 10.256 110.296 10.592C109.587 10.9093 108.952 11.3667 108.392 11.964C107.851 12.5613 107.421 13.2613 107.104 14.064C106.787 14.848 106.628 15.7067 106.628 16.64C106.628 17.6293 106.768 18.5347 107.048 19.356C107.347 20.1773 107.767 20.8867 108.308 21.484C108.849 22.0627 109.493 22.5107 110.24 22.828C111.005 23.1453 111.864 23.304 112.816 23.304C113.917 23.304 114.86 23.1267 115.644 22.772C116.428 22.4173 117.025 22.044 117.436 21.652L119.116 25.292ZM121.587 20.728C121.587 19.4773 121.877 18.3573 122.455 17.368C123.053 16.3787 123.883 15.604 124.947 15.044C126.011 14.4653 127.234 14.176 128.615 14.176C130.015 14.176 131.229 14.4653 132.255 15.044C133.282 15.604 134.066 16.3787 134.607 17.368C135.167 18.3573 135.447 19.4773 135.447 20.728C135.447 21.9787 135.167 23.108 134.607 24.116C134.066 25.1053 133.282 25.8893 132.255 26.468C131.229 27.0467 129.997 27.336 128.559 27.336C127.215 27.336 126.011 27.0747 124.947 26.552C123.902 26.0293 123.081 25.2733 122.483 24.284C121.886 23.2947 121.587 22.1093 121.587 20.728ZM125.535 20.756C125.535 21.3907 125.666 21.9693 125.927 22.492C126.189 22.996 126.543 23.3973 126.991 23.696C127.439 23.9947 127.943 24.144 128.503 24.144C129.119 24.144 129.651 23.9947 130.099 23.696C130.547 23.3973 130.893 22.996 131.135 22.492C131.378 21.9693 131.499 21.3907 131.499 20.756C131.499 20.1027 131.378 19.524 131.135 19.02C130.893 18.516 130.547 18.1147 130.099 17.816C129.651 17.5173 129.119 17.368 128.503 17.368C127.943 17.368 127.439 17.5173 126.991 17.816C126.543 18.1147 126.189 18.516 125.927 19.02C125.666 19.524 125.535 20.1027 125.535 20.756ZM142.092 14.764L142.4 16.948L142.344 16.752C142.773 15.9867 143.38 15.3707 144.164 14.904C144.948 14.4187 145.909 14.176 147.048 14.176C148.205 14.176 149.166 14.5213 149.932 15.212C150.716 15.884 151.117 16.7613 151.136 17.844V27H147.216V19.3C147.197 18.7587 147.048 18.3293 146.768 18.012C146.506 17.676 146.058 17.508 145.424 17.508C144.826 17.508 144.304 17.704 143.856 18.096C143.408 18.488 143.062 19.02 142.82 19.692C142.577 20.364 142.456 21.1387 142.456 22.016V27H138.536V14.764H142.092ZM156.337 27V18.18H154.265V14.708H156.337V10.452C156.337 8.84667 156.794 7.54 157.709 6.532C158.642 5.50533 159.986 4.992 161.741 4.992C162.263 4.992 162.842 5.076 163.477 5.244C164.13 5.39333 164.699 5.64533 165.185 6L163.533 8.828C163.346 8.58533 163.122 8.42667 162.861 8.352C162.618 8.25867 162.385 8.212 162.161 8.212C161.601 8.212 161.143 8.39867 160.789 8.772C160.434 9.14533 160.257 9.74267 160.257 10.564V14.708H163.953V18.18H160.257V27H156.337ZM172.528 27.336C171.035 27.336 169.766 27.056 168.72 26.496C167.694 25.936 166.91 25.1613 166.368 24.172C165.827 23.1827 165.556 22.044 165.556 20.756C165.556 19.524 165.874 18.4133 166.508 17.424C167.143 16.4347 167.992 15.6507 169.056 15.072C170.12 14.4747 171.306 14.176 172.612 14.176C174.367 14.176 175.804 14.6893 176.924 15.716C178.063 16.724 178.8 18.1893 179.136 20.112L169.616 23.136L168.748 21.008L175.636 18.684L174.824 19.048C174.675 18.5627 174.404 18.1427 174.012 17.788C173.639 17.4147 173.07 17.228 172.304 17.228C171.726 17.228 171.212 17.368 170.764 17.648C170.335 17.9093 169.999 18.292 169.756 18.796C169.532 19.2813 169.42 19.86 169.42 20.532C169.42 21.2973 169.56 21.9413 169.84 22.464C170.12 22.968 170.503 23.3507 170.988 23.612C171.474 23.8733 172.015 24.004 172.612 24.004C173.042 24.004 173.452 23.9293 173.844 23.78C174.255 23.6307 174.656 23.4347 175.048 23.192L176.784 26.104C176.131 26.4773 175.422 26.776 174.656 27C173.91 27.224 173.2 27.336 172.528 27.336ZM181.985 14.764H185.905V27H181.985V14.764ZM181.901 10.424C181.901 9.84533 182.125 9.36933 182.573 8.996C183.039 8.62267 183.534 8.436 184.057 8.436C184.579 8.436 185.055 8.62267 185.485 8.996C185.933 9.36933 186.157 9.84533 186.157 10.424C186.157 11.0027 185.933 11.4787 185.485 11.852C185.055 12.2067 184.579 12.384 184.057 12.384C183.534 12.384 183.039 12.2067 182.573 11.852C182.125 11.4787 181.901 11.0027 181.901 10.424ZM191.09 9.388H195.01V14.708H197.978V17.76H195.01V27H191.09V17.76H189.186V14.708H191.09V9.388ZM206.113 27.336C204.975 27.336 203.939 27.112 203.005 26.664C202.091 26.1973 201.363 25.488 200.821 24.536C200.28 23.584 200.009 22.3707 200.009 20.896C200.009 19.5147 200.289 18.32 200.849 17.312C201.409 16.304 202.147 15.5293 203.061 14.988C203.976 14.428 204.947 14.148 205.973 14.148C207.187 14.148 208.101 14.3533 208.717 14.764C209.352 15.156 209.875 15.5947 210.285 16.08L210.117 16.556L210.481 14.764H214.121V27H210.201V24.34L210.509 25.18C210.472 25.18 210.36 25.292 210.173 25.516C209.987 25.7213 209.707 25.9733 209.333 26.272C208.979 26.552 208.531 26.7947 207.989 27C207.467 27.224 206.841 27.336 206.113 27.336ZM207.233 24.144C207.7 24.144 208.12 24.0787 208.493 23.948C208.867 23.7987 209.193 23.5933 209.473 23.332C209.753 23.052 209.996 22.7067 210.201 22.296V19.3C210.052 18.8893 209.828 18.544 209.529 18.264C209.231 17.9653 208.876 17.7413 208.465 17.592C208.055 17.424 207.597 17.34 207.093 17.34C206.533 17.34 206.011 17.4893 205.525 17.788C205.059 18.068 204.685 18.46 204.405 18.964C204.125 19.468 203.985 20.0467 203.985 20.7C203.985 21.3533 204.135 21.9413 204.433 22.464C204.732 22.9867 205.124 23.3973 205.609 23.696C206.113 23.9947 206.655 24.144 207.233 24.144ZM221.689 14.764L222.053 18.124L221.969 17.62C222.323 16.892 222.809 16.276 223.425 15.772C224.041 15.2493 224.647 14.848 225.245 14.568C225.861 14.288 226.327 14.148 226.645 14.148L226.449 18.068C225.534 17.956 224.75 18.1053 224.097 18.516C223.443 18.9267 222.939 19.468 222.585 20.14C222.23 20.812 222.053 21.5027 222.053 22.212V27H218.161V14.764H221.689ZM229.645 14.764H233.565V27H229.645V14.764ZM229.561 10.424C229.561 9.84533 229.785 9.36933 230.233 8.996C230.7 8.62267 231.194 8.436 231.717 8.436C232.24 8.436 232.716 8.62267 233.145 8.996C233.593 9.36933 233.817 9.84533 233.817 10.424C233.817 11.0027 233.593 11.4787 233.145 11.852C232.716 12.2067 232.24 12.384 231.717 12.384C231.194 12.384 230.7 12.2067 230.233 11.852C229.785 11.4787 229.561 11.0027 229.561 10.424ZM242.754 27.336C241.615 27.336 240.579 27.112 239.646 26.664C238.731 26.1973 238.003 25.488 237.462 24.536C236.921 23.584 236.65 22.3707 236.65 20.896C236.65 19.5147 236.93 18.32 237.49 17.312C238.05 16.304 238.787 15.5293 239.702 14.988C240.617 14.428 241.587 14.148 242.614 14.148C243.827 14.148 244.742 14.3533 245.358 14.764C245.993 15.156 246.515 15.5947 246.926 16.08L246.758 16.556L247.122 14.764H250.762V27H246.842V24.34L247.15 25.18C247.113 25.18 247.001 25.292 246.814 25.516C246.627 25.7213 246.347 25.9733 245.974 26.272C245.619 26.552 245.171 26.7947 244.63 27C244.107 27.224 243.482 27.336 242.754 27.336ZM243.874 24.144C244.341 24.144 244.761 24.0787 245.134 23.948C245.507 23.7987 245.834 23.5933 246.114 23.332C246.394 23.052 246.637 22.7067 246.842 22.296V19.3C246.693 18.8893 246.469 18.544 246.17 18.264C245.871 17.9653 245.517 17.7413 245.106 17.592C244.695 17.424 244.238 17.34 243.734 17.34C243.174 17.34 242.651 17.4893 242.166 17.788C241.699 18.068 241.326 18.46 241.046 18.964C240.766 19.468 240.626 20.0467 240.626 20.7C240.626 21.3533 240.775 21.9413 241.074 22.464C241.373 22.9867 241.765 23.3973 242.25 23.696C242.754 23.9947 243.295 24.144 243.874 24.144Z" fill="#734939"/>
<path d="M88.4893 2.93462C88.4893 3.91468 88.0084 4.78211 87.2712 5.3151H83.8382C83.101 4.78211 82.6201 3.91468 82.6201 2.93462C82.6201 1.31451 83.9339 0 85.5547 0C87.1762 0 88.4893 1.31451 88.4893 2.93462Z" fill="#F95428"/>
<path d="M85.1547 2.93462C85.1547 1.76818 85.8358 0.760272 86.8222 0.287139C86.4386 0.103201 86.0087 0 85.5547 0C83.9339 0 82.6201 1.31451 82.6201 2.93462C82.6201 3.91468 83.101 4.78211 83.8382 5.3151H86.3727C85.6356 4.78211 85.1547 3.91468 85.1547 2.93462Z" fill="#E54728"/>
<path d="M94.1147 16.0367H93.3345H88.8791H82.1214H77.666H76.9957H74.3301L77.8906 27H80.1633H83.1979H87.8019H90.8372H93.1093L96.6705 16.0367H94.1147Z" fill="#F7B239"/>
<path d="M94.3297 11.6919C93.7982 11.161 93.0645 10.8322 92.2548 10.8322H90.1461C91.6915 10.8322 92.9448 9.5797 92.9448 8.03421V7.76173C92.9448 6.2163 91.6915 4.96301 90.1461 4.96301H87.2713H83.8382H80.9642C79.4188 4.96301 78.1655 6.2163 78.1655 7.76173V8.03421C78.1655 9.57964 79.4188 10.8322 80.9642 10.8322H78.8555C77.2354 10.8322 75.9209 12.1468 75.9209 13.7669C75.9209 14.578 76.2497 15.3109 76.7806 15.8425C76.8489 15.9108 76.9207 15.9755 76.9953 16.0368H77.6656H82.121H88.8788H93.3342H94.1143C94.7698 15.4989 95.1895 14.6822 95.1895 13.7669C95.1894 12.9564 94.8606 12.2235 94.3297 11.6919Z" fill="#B27214"/>
<path d="M80.6882 15.8425C80.7565 15.9108 80.8283 15.9756 80.9029 16.0368H76.9953C76.9207 15.9756 76.8489 15.9108 76.7806 15.8425C76.2497 15.311 75.9209 14.578 75.9209 13.7669C75.9209 12.1468 77.2354 10.8323 78.8555 10.8323H82.7631C81.143 10.8323 79.8285 12.1468 79.8285 13.7669C79.8285 14.578 80.1573 15.311 80.6882 15.8425Z" fill="#995C0D"/>
<path d="M84.8724 10.8322H80.9647C79.4193 10.8322 78.166 9.5797 78.166 8.03421V7.76173C78.166 6.2163 79.4193 4.96301 80.9647 4.96301H84.8724C83.3269 4.96301 82.0736 6.2163 82.0736 7.76173V8.03421C82.0736 9.5797 83.3269 10.8322 84.8724 10.8322Z" fill="#995C0D"/>
<path d="M82.1214 16.0367H77.666H76.9957H74.3301L77.8906 27H80.1633H83.1979L82.1214 16.0367Z" fill="#E09B2D"/>
<path d="M21.112 27.84L5.488 13.728L6.692 14.4L6.776 27H2.66V5.58H2.828L18.116 19.636L17.22 19.244L17.136 6.392H21.224V27.84H21.112ZM31.0391 27.336C29.9004 27.336 28.8644 27.112 27.9311 26.664C27.0164 26.1973 26.2884 25.488 25.7471 24.536C25.2058 23.584 24.9351 22.3707 24.9351 20.896C24.9351 19.5147 25.2151 18.32 25.7751 17.312C26.3351 16.304 27.0724 15.5293 27.9871 14.988C28.9018 14.428 29.8724 14.148 30.8991 14.148C32.1124 14.148 33.0271 14.3533 33.6431 14.764C34.2778 15.156 34.8004 15.5947 35.2111 16.08L35.0431 16.556L35.4071 14.764H39.0471V27H35.1271V24.34L35.4351 25.18C35.3978 25.18 35.2858 25.292 35.0991 25.516C34.9124 25.7213 34.6324 25.9733 34.2591 26.272C33.9044 26.552 33.4564 26.7947 32.9151 27C32.3924 27.224 31.7671 27.336 31.0391 27.336ZM32.1591 24.144C32.6258 24.144 33.0458 24.0787 33.4191 23.948C33.7924 23.7987 34.1191 23.5933 34.3991 23.332C34.6791 23.052 34.9218 22.7067 35.1271 22.296V19.3C34.9778 18.8893 34.7538 18.544 34.4551 18.264C34.1564 17.9653 33.8018 17.7413 33.3911 17.592C32.9804 17.424 32.5231 17.34 32.0191 17.34C31.4591 17.34 30.9364 17.4893 30.4511 17.788C29.9844 18.068 29.6111 18.46 29.3311 18.964C29.0511 19.468 28.9111 20.0467 28.9111 20.7C28.9111 21.3533 29.0604 21.9413 29.3591 22.464C29.6578 22.9867 30.0498 23.3973 30.5351 23.696C31.0391 23.9947 31.5804 24.144 32.1591 24.144ZM49.6103 22.66C49.6103 24.452 49.2556 25.9827 48.5463 27.252C47.837 28.5213 46.8476 29.492 45.5783 30.164C44.3276 30.8547 42.8716 31.228 41.2103 31.284V27.336C42.4796 27.2613 43.5156 26.8693 44.3183 26.16C45.121 25.4507 45.5223 24.256 45.5223 22.576V6.392H49.6103V22.66ZM58.2453 27.588C57.1439 27.588 56.2199 27.252 55.4733 26.58C54.7266 25.8893 54.3346 25.0027 54.2973 23.92V14.764H58.2173V22.464C58.2546 23.0053 58.3946 23.444 58.6373 23.78C58.8799 24.0973 59.2906 24.256 59.8693 24.256C60.4479 24.256 60.9426 24.06 61.3533 23.668C61.7826 23.276 62.1093 22.744 62.3333 22.072C62.5759 21.3813 62.6973 20.6067 62.6973 19.748V14.764H66.6173V27H63.0613L62.7533 24.76L62.8093 25.012C62.5293 25.516 62.1746 25.964 61.7453 26.356C61.3159 26.748 60.8026 27.0467 60.2053 27.252C59.6266 27.476 58.9733 27.588 58.2453 27.588Z" fill="#F7B239"/>
</svg>
