<svg width="86" height="86" viewBox="0 0 86 86" fill="none" xmlns="http://www.w3.org/2000/svg">
<g clip-path="url(#clip0_104_2797)">
<path d="M31.0557 65.9102C25.8423 68.9556 21.9222 73.972 20.3149 79.9373C26.9081 83.7903 34.5785 86.0003 42.766 86.0003L52.4541 75.5371L42.766 65.9102H31.0557Z" fill="#937EA3"/>
<path d="M65.217 79.9373C63.7105 74.3466 60.1725 69.5894 55.4425 66.507C55.4424 66.507 55.4424 66.5068 55.4422 66.5068C55.1254 66.3003 54.8034 66.1015 54.476 65.9102H42.7659H31.0556C30.7284 66.1015 30.4061 66.3003 30.0891 66.507C32.141 69.3144 35.1013 71.4155 38.5383 72.3755C41.0561 73.0786 42.7659 75.4186 42.7659 78.0328V86.0004C50.9534 86.0003 58.6239 83.7903 65.217 79.9373Z" fill="#796093"/>
<path d="M27.9557 78.3066C26.4739 76.6461 24.7579 75.1998 22.8583 74.0195C21.7497 75.8524 20.8859 77.8496 20.3149 79.9676C22.0272 80.9682 23.8127 81.857 25.6607 82.6261L27.9557 78.3066Z" fill="#E8C6B3"/>
<path d="M55.1667 73.7715V84.2501C56.7725 83.7856 58.3405 83.2328 59.866 82.5981C59.1862 79.1935 57.5153 76.1467 55.1667 73.7715Z" fill="#684C77"/>
<path d="M25.6658 82.5979C27.1913 83.2326 28.7594 83.7852 30.365 84.2498V73.7712C28.0165 76.1467 26.3457 79.1935 25.6658 82.5979Z" fill="#796093"/>
<path d="M72.7993 32.7462C72.4004 32.7462 72.0085 32.7761 71.6239 32.8281C70.6384 32.9618 69.7045 33.258 68.8519 33.6917C68.6053 32.7584 68.3144 31.8336 67.9865 30.92C66.4345 26.5933 64.0018 22.5308 60.9296 19.1847C56.121 13.9472 49.7523 10.4634 42.7661 10.4634C31.3167 10.4634 21.5249 19.8203 17.5435 30.9193C17.2157 31.8331 16.9268 32.7586 16.6802 33.6917L17.3967 55.6496C18.1232 58.6107 19.0803 61.1229 20.2799 62.283C24.6985 66.557 35.2416 68.5921 42.8135 68.5921C50.3854 68.5921 60.8339 66.557 65.2525 62.283C67.2459 60.3549 68.571 54.6959 69.2777 49.4416C70.355 49.9181 71.5459 50.1847 72.7995 50.1847C77.615 50.1847 81.5188 46.2809 81.5188 41.4654C81.5188 36.6499 77.615 32.7462 72.7993 32.7462Z" fill="#DFB296"/>
<path d="M62.1538 34.9303L55.8021 28.5785C54.8403 27.6167 53.795 26.7883 52.6921 26.0845C45.5932 21.5545 36.1315 22.4725 29.8176 28.5384C28.6571 29.6533 26.298 31.844 24.2299 33.7548C22.417 35.4301 19.6817 35.6517 17.6434 34.2596C16.1305 33.2264 14.2756 32.6573 12.2835 32.7571C7.80826 32.9816 4.19004 36.6476 4.01989 41.1251C3.83109 46.096 7.8044 50.1847 12.7328 50.1847C13.9865 50.1847 15.1772 49.9181 16.2546 49.4416C16.5361 51.534 16.9159 53.6899 17.3966 55.6494C22.5852 58.5009 30.7895 59.8728 37.0005 59.8728C44.5723 59.8728 55.0208 57.8377 59.4394 53.5637C61.6319 51.4431 63.0158 44.8099 63.6578 39.1656C63.836 37.5988 63.277 36.0375 62.1542 34.9306C62.154 34.9304 62.1538 34.9303 62.1538 34.9303Z" fill="#E8C6B3"/>
<path d="M72.7992 44.3716C74.4043 44.3716 75.7056 43.0703 75.7056 41.4652C75.7056 39.8601 74.4043 38.5588 72.7992 38.5588C71.1941 38.5588 69.8928 39.8601 69.8928 41.4652C69.8928 43.0703 71.1941 44.3716 72.7992 44.3716Z" fill="#CE9276"/>
<path d="M12.7328 44.3716C14.3379 44.3716 15.6392 43.0703 15.6392 41.4652C15.6392 39.8601 14.3379 38.5588 12.7328 38.5588C11.1276 38.5588 9.82642 39.8601 9.82642 41.4652C9.82642 43.0703 11.1276 44.3716 12.7328 44.3716Z" fill="#DFB296"/>
<path d="M71.1032 23.9768C70.486 21.1844 69.4211 18.4987 67.9126 16.0432C63.2568 8.46355 55.6404 2.74991 46.9994 0.288828C42.1942 -1.08113 37.4309 2.59572 37.4309 7.65243L14.83 22.8273C13.5008 26.4996 14.1999 30.602 16.589 33.6915L18.125 34.4709C18.723 34.7742 19.4483 34.6587 19.9223 34.1845L27.6774 26.4771C35.8112 18.3932 48.8347 18.2236 57.1738 25.9533L57.174 25.9535C57.3739 26.1389 57.5712 26.3287 57.7657 26.5234L65.427 34.1847C65.9011 34.6588 66.6264 34.7742 67.2242 34.471L68.7603 33.6917L68.9516 33.4444C71.0274 30.7591 71.8353 27.2907 71.1032 23.9768Z" fill="#9E7325"/>
<path d="M14.2977 28.3608C16.7527 29.6626 19.7691 29.2146 21.74 27.2558L25.1165 23.8999C30.3108 18.7377 37.2377 16.3408 44.042 16.7045C45.1734 16.7649 45.7537 15.3671 44.9228 14.5969L37.4307 7.6521C30.5851 7.6521 24.3877 10.4634 19.9026 15.0098C18.924 16.0008 18.0272 17.0745 17.2227 18.2195C16.2179 19.65 15.4183 21.2008 14.8296 22.8271C14.1791 24.6254 14.0156 26.5261 14.2977 28.3608Z" fill="#BB9430"/>
<path d="M61.0811 13.5973C57.3097 7.45753 51.3814 2.61817 44.5445 0.0146484C41.7697 0.169852 39.3014 1.89489 38.1382 4.41443L43.0263 8.9454C48.0339 13.5872 53.2583 17.984 58.5333 22.3199C59.154 22.8301 59.7555 23.3748 60.3348 23.9543C61.7202 25.3397 64.1163 24.3705 64.1079 22.4113C64.1054 21.8192 64.0402 21.2244 63.9102 20.6364C63.3529 18.114 62.401 15.7456 61.0811 13.5973Z" fill="#BB9430"/>
<path d="M45.4006 31.7219C45.8501 31.7219 46.2937 31.93 46.5779 32.3217C47.4695 33.5503 48.7593 34.487 50.2106 34.9594C50.9737 35.2078 51.3911 36.028 51.1426 36.7911C50.8942 37.5545 50.0732 37.9716 49.3108 37.7231C47.2511 37.0526 45.4927 35.775 44.2257 34.0286C43.7542 33.3789 43.8988 32.4704 44.5485 31.9989C44.8062 31.8121 45.1046 31.7219 45.4006 31.7219Z" fill="#9E7325"/>
<path d="M40.1311 31.7217C40.4269 31.7217 40.7255 31.8117 40.9835 31.999C41.6332 32.4705 41.7775 33.3792 41.3062 34.0287C40.0374 35.7768 38.2789 37.0545 36.2204 37.7232C35.458 37.9713 34.6373 37.5537 34.3894 36.7903C34.1413 36.0271 34.5592 35.207 35.3223 34.9591C36.7925 34.4812 38.0481 33.5692 38.9536 32.3217C39.238 31.9298 39.6814 31.7217 40.1311 31.7217Z" fill="#9E7325"/>
<path d="M33.0778 44.3716C34.6829 44.3716 35.9841 43.0703 35.9841 41.4652C35.9841 39.8601 34.6829 38.5588 33.0778 38.5588C31.4726 38.5588 30.1714 39.8601 30.1714 41.4652C30.1714 43.0703 31.4726 44.3716 33.0778 44.3716Z" fill="#474641"/>
<path d="M52.454 44.3716C54.0591 44.3716 55.3603 43.0703 55.3603 41.4652C55.3603 39.8601 54.0591 38.5588 52.454 38.5588C50.8488 38.5588 49.5476 39.8601 49.5476 41.4652C49.5476 43.0703 50.8488 44.3716 52.454 44.3716Z" fill="#474641"/>
<path d="M42.7661 48.7314C40.3622 48.7314 38.4065 46.7757 38.4065 44.3717C38.4065 43.5692 39.0572 42.9185 39.8598 42.9185C40.6623 42.9185 41.313 43.5692 41.313 44.3717C41.313 45.1731 41.9649 45.825 42.7663 45.825C43.5677 45.825 44.2196 45.1731 44.2196 44.3717C44.2196 43.5692 44.8703 42.9185 45.6728 42.9185C46.4754 42.9185 47.1261 43.5692 47.1261 44.3717C47.1258 46.7757 45.1701 48.7314 42.7661 48.7314Z" fill="#474641"/>
<path d="M58.1052 77.7336C58.9239 79.2442 59.5273 80.8884 59.8714 82.6264C59.9826 82.5801 60.0938 82.5339 60.2045 82.4865C61.9339 81.75 63.6077 80.9083 65.217 79.968C64.6463 77.8499 63.7821 75.8529 62.6735 74.02C60.9961 75.0623 59.4617 76.312 58.1052 77.7336Z" fill="#CE9276"/>
</g>
<defs>
<clipPath id="clip0_104_2797">
<rect width="86" height="86" fill="white"/>
</clipPath>
</defs>
</svg>
