<svg width="86" height="86" viewBox="0 0 86 86" fill="none" xmlns="http://www.w3.org/2000/svg">
<g clip-path="url(#clip0_104_2693)">
<path d="M12.0337 41.7575L12.1081 51.5232C12.1089 51.6278 12.1135 51.7313 12.1157 51.8354C12.118 51.93 12.1192 52.0247 12.1224 52.1191C12.3948 60.9054 17.1836 68.5372 24.2342 72.7903L24.27 72.7902C28.0938 75.0976 32.5794 76.4109 37.3689 76.3743L43.2397 76.3294L73.9146 41.2852L12.0337 41.7575Z" fill="#B85750"/>
<path d="M42.9741 41.5214L43.2398 76.3295L49.1107 76.2847C53.9 76.2481 58.3651 74.8664 62.1533 72.5009L62.189 72.5007C69.1738 68.1404 73.8457 60.4363 73.9841 51.6469C73.9858 51.5525 73.9858 51.4578 73.9866 51.3632C73.9871 51.2589 73.9903 51.1552 73.9895 51.0506L73.9151 41.2849L42.9741 41.5214Z" fill="#B85750"/>
<path d="M57.6223 69.4582C56.5998 68.2808 55.4377 67.2283 54.1615 66.3268C50.9716 64.0731 47.0717 62.761 42.8682 62.7931C38.6646 62.8251 34.785 64.1966 31.6301 66.4989C30.3678 67.4199 29.2219 68.49 28.2175 69.6828C25.4619 72.9555 23.7728 77.1527 23.6816 81.7365C25.5506 82.6224 27.492 83.3796 29.4927 84.0014C30.0584 84.1773 30.6288 84.3417 31.2039 84.4953C31.2794 84.5154 31.3551 84.5351 31.4307 84.5549C35.1378 85.5237 39.0308 86.029 43.0452 85.9986C47.0597 85.9682 50.9446 85.4031 54.6362 84.378C54.7116 84.3572 54.787 84.3364 54.8621 84.315C55.4347 84.1528 56.0026 83.9793 56.5657 83.795C57.5459 83.4738 58.5094 83.1162 59.4582 82.7304C60.0374 82.4951 60.6125 82.2515 61.1792 81.9925C61.5694 81.814 61.9573 81.6311 62.3414 81.4418C62.1805 76.8594 60.4274 72.6886 57.6223 69.4582Z" fill="#E8C6B3"/>
<path opacity="0.3" d="M47.911 75.1324C47.2672 75.1265 46.6445 75.2106 46.0543 75.3727C44.0309 75.9282 41.906 75.9443 39.8744 75.4199C39.2816 75.2669 38.6578 75.1923 38.0143 75.2078C34.3529 75.296 31.3849 78.5027 31.4128 82.165L31.4131 82.2191L31.4309 84.5546C35.138 85.5234 39.031 86.0286 43.0455 85.9982C47.0599 85.9678 50.9448 85.4028 54.6365 84.3777L54.6186 82.0422L54.6183 81.9882C54.5901 78.3258 51.5732 75.1648 47.911 75.1324Z" fill="#AB5034"/>
<path d="M28.2175 69.6829C25.4619 72.9556 23.7728 77.1528 23.6816 81.7366C25.5506 82.6225 27.492 83.3797 29.4927 84.0015C30.0584 84.1774 30.6288 84.3418 31.2039 84.4954C31.2794 84.5155 31.3551 84.5352 31.4307 84.555L31.4055 81.2526C31.3734 77.0295 30.2146 73.0789 28.2175 69.6829Z" fill="#CE9276"/>
<path d="M57.6225 69.4583C57.0932 70.3903 56.6277 71.363 56.2297 72.3697C55.1646 75.0629 54.5878 78.0011 54.6113 81.0753L54.6365 84.3777C54.7119 84.3569 54.7873 84.3361 54.8624 84.3147C55.435 84.1525 56.0029 83.979 56.5659 83.7947C57.5462 83.4736 58.5097 83.1159 59.4585 82.7301C60.0377 82.4948 60.6128 82.2512 61.1795 81.9922C61.5697 81.8137 61.9576 81.6308 62.3417 81.4415C62.1806 76.8595 60.4275 72.6886 57.6225 69.4583Z" fill="#CE9276"/>
<path opacity="0.3" d="M57.6219 69.4582C56.5993 68.2808 55.4373 67.2283 54.1611 66.3268C50.9712 64.0731 47.0713 62.761 42.8677 62.7931C38.6642 62.8251 34.7846 64.1966 31.6296 66.4989C34.3138 69.7554 38.3877 71.8202 42.9364 71.7853C45.5087 71.7656 47.9187 71.0771 50.0042 69.8865C51.4988 69.0333 53.3918 69.2777 54.6099 70.4932C55.1948 71.0769 55.7361 71.7045 56.2291 72.3698C58.2281 75.0685 59.4251 78.3975 59.4524 82.0053L59.458 82.7301C60.0371 82.4948 60.6123 82.2512 61.179 81.9922C61.5692 81.8137 61.957 81.6307 62.3412 81.4414C62.1801 76.8594 60.427 72.6886 57.6219 69.4582Z" fill="#AB5034"/>
<path d="M18.4733 34.7454L28.9651 64.6755C33.1151 67.1971 37.9941 68.6344 43.2067 68.5944C55.4764 68.5009 65.7754 60.2573 69.0142 49.0412C70.2219 49.6604 71.5898 50.006 73.0401 49.9948C77.9518 49.9573 81.8831 45.8564 81.6674 40.9073C81.5188 37.4884 79.3572 34.5502 76.3406 33.2737C75.55 32.9391 74.7018 32.7169 73.8144 32.6322C73.7176 32.6215 73.6189 32.6144 73.5203 32.6075L60.8333 20.1129C53.593 12.9823 41.9429 13.0711 34.8123 20.3114L32.6725 20.3277C24.7705 20.3877 18.4129 26.8428 18.4733 34.7454Z" fill="#E1B872"/>
<path d="M64.2498 38.4585C64.2498 38.455 64.2498 38.4516 64.2498 38.4482C64.2454 37.8919 63.7731 37.4582 63.217 37.4767C63.0147 37.4834 62.8127 37.4875 62.6104 37.4891C56.6138 37.535 50.6887 35.3811 46.1331 31.378C46.0588 31.314 45.9861 31.2481 45.9115 31.1799C45.6391 30.9354 45.375 30.6874 45.1268 30.4429C43.7491 29.0961 42.192 27.5762 41.1478 26.57C39.7283 25.2012 36.894 24.1242 33.7595 24.8013C29.6928 25.6801 26.32 29.2068 24.0019 35.0024C23.4041 36.497 21.6673 37.3024 20.1772 36.693C19.3023 36.3352 18.6978 35.5965 18.4732 34.7457C17.9249 34.5139 17.3794 34.2064 16.9064 33.9621C15.7182 33.3699 14.3795 33.0378 12.96 33.0486C12.7569 33.0501 12.5538 33.0593 12.347 33.0744C7.94241 33.4117 4.45253 37.0817 4.32756 41.4979C4.18731 46.4496 8.18076 50.4901 13.0927 50.4528C14.5431 50.4417 15.9056 50.0755 17.1036 49.4379C19.0646 55.86 23.3466 61.2624 28.965 64.6762C31.8364 65.386 34.6907 65.7591 37.3831 65.7386C52.3355 65.6239 64.3638 53.4104 64.2498 38.4585Z" fill="#ECCE93"/>
<path d="M13.0263 44.6505C14.6284 44.6505 15.9271 43.3518 15.9271 41.7497C15.9271 40.1476 14.6284 38.8489 13.0263 38.8489C11.4242 38.8489 10.1255 40.1476 10.1255 41.7497C10.1255 43.3518 11.4242 44.6505 13.0263 44.6505Z" fill="#E1B872"/>
<path d="M72.9738 44.1942C74.5759 44.1942 75.8746 42.8955 75.8746 41.2934C75.8746 39.6913 74.5759 38.3926 72.9738 38.3926C71.3717 38.3926 70.073 39.6913 70.073 41.2934C70.073 42.8955 71.3717 44.1942 72.9738 44.1942Z" fill="#D5A150"/>
<path d="M47.5548 0.273458C42.6713 -1.06055 37.8688 2.65659 37.9072 7.71715C30.9649 7.77006 24.7016 10.6316 20.1881 15.2166C15.6726 19.7996 12.9068 26.1058 12.9597 33.0481C14.3792 33.0374 15.7179 33.3693 16.9061 33.9617C18.3488 34.7068 20.4669 36.0445 21.275 34.0077C27.2653 18.9201 38.8638 20.3381 43.1598 24.4807C44.1437 25.4286 45.5854 26.8351 47.1616 28.3761C47.3896 28.6007 47.6232 28.8193 47.8609 29.032C47.9173 29.0839 47.9758 29.1356 48.0342 29.1872C53.1138 33.6582 59.9738 35.4857 66.5623 34.1861C67.6728 33.9667 68.7469 33.6029 69.8018 33.1887C70.9433 32.7411 72.2005 32.5264 73.5201 32.6072C73.6187 32.6141 73.7174 32.6211 73.8142 32.6319L73.8196 32.5835C72.8739 17.0501 62.0332 4.22407 47.5548 0.273458Z" fill="#46475A"/>
<path d="M68.9866 30.4426C71.1368 29.8462 72.7031 29.776 73.5416 29.8057C71.5527 15.5363 61.1604 3.98608 47.5548 0.273472C44.5553 -0.545879 41.5884 0.542053 39.753 2.67475C39.6929 2.92301 39.6511 3.17849 39.6316 3.44018L44.1714 17.627L44.1921 17.7052C45.0501 20.9591 46.7802 23.9333 49.1974 26.3091C49.3854 26.4942 49.5873 26.6835 49.7969 26.8716L49.8216 26.8938C49.8662 26.9349 49.9126 26.9759 49.9509 27.0099C53.4231 30.066 57.8846 31.7298 62.5133 31.6943C63.6815 31.6854 64.883 31.6787 66.0006 31.3403C67.2317 30.9679 68.1698 30.6692 68.9866 30.4426Z" fill="#D45F3A"/>
<path d="M16.7479 30.7597C18.0807 31.2164 19.5489 30.6421 20.2168 29.4015C21.8667 26.3368 23.8723 23.8913 26.2053 22.105C29.0012 19.9642 32.2399 18.8192 35.5718 18.7936C37.1858 18.7812 38.7877 19.039 40.2776 19.5275C40.9409 19.7448 41.5706 19.1375 41.392 18.4627C41.3905 18.4567 41.389 18.451 41.3873 18.4449L37.9074 7.71729C30.9651 7.7702 24.7017 10.6317 20.1882 15.2167C16.6812 18.7762 14.2314 23.3755 13.3364 28.5044C13.1891 29.3491 13.7663 30.1419 14.6159 30.2576C15.3364 30.3557 16.0431 30.5214 16.7324 30.7545L16.7479 30.7597Z" fill="#B85750"/>
<path d="M36.3949 31.9187C34.34 31.267 32.1707 31.2836 30.1215 31.9669C29.3614 32.2202 28.9509 33.0416 29.2042 33.8016C29.4078 34.4129 29.9796 34.7984 30.5908 34.7937C30.7395 34.7925 30.8903 34.7685 31.0386 34.7187C32.5023 34.2308 34.0511 34.2187 35.5177 34.6838C36.2802 34.9259 37.0964 34.5036 37.3388 33.7397C37.581 32.9761 37.1585 32.1608 36.3949 31.9187Z" fill="#46475A"/>
<path d="M55.7329 31.7711C53.6776 31.1194 51.5086 31.1358 49.4594 31.8193C48.6993 32.0726 48.2888 32.8941 48.5421 33.654C48.7457 34.2652 49.3175 34.6507 49.9287 34.646C50.0774 34.6448 50.2282 34.6208 50.3765 34.5711C51.8407 34.083 53.3894 34.0712 54.8556 34.5362C55.6181 34.7782 56.4343 34.3559 56.6767 33.592C56.9189 32.8284 56.4963 32.0133 55.7329 31.7711Z" fill="#46475A"/>
<path d="M33.332 44.496C34.934 44.496 36.2328 43.1972 36.2328 41.5951C36.2328 39.9931 34.934 38.6943 33.332 38.6943C31.7299 38.6943 30.4312 39.9931 30.4312 41.5951C30.4312 43.1972 31.7299 44.496 33.332 44.496Z" fill="#474641"/>
<path d="M52.6682 44.349C54.2702 44.349 55.569 43.0503 55.569 41.4482C55.569 39.8461 54.2702 38.5474 52.6682 38.5474C51.0661 38.5474 49.7673 39.8461 49.7673 41.4482C49.7673 43.0503 51.0661 44.349 52.6682 44.349Z" fill="#474641"/>
<path d="M43.0642 49.9128C41.902 49.9217 40.8059 49.4772 39.9778 48.6617C39.407 48.0995 39.4001 47.1814 39.9623 46.6105C40.5244 46.0401 41.4426 46.033 42.0134 46.5951C42.2894 46.867 42.6547 47.0151 43.0421 47.012C43.4294 47.0091 43.7925 46.8552 44.0643 46.5794C44.6265 46.0087 45.5448 46.0016 46.1154 46.5638C46.6863 47.126 46.6932 48.0441 46.1312 48.615C45.3155 49.4428 44.2264 49.9039 43.0642 49.9128Z" fill="#8D472E"/>
<path d="M29.1174 46.9456L27.1835 46.9604C26.3825 46.9666 25.7283 46.3221 25.7222 45.5211C25.7162 44.72 26.3603 44.0658 27.1615 44.0597L29.0954 44.045C29.8964 44.0388 30.5506 44.6832 30.5567 45.4843C30.5627 46.2853 29.9184 46.9397 29.1174 46.9456Z" fill="#E1B872"/>
<path d="M58.8977 46.7183L56.9638 46.733C56.1628 46.7392 55.5085 46.0947 55.5025 45.2936C55.4963 44.4926 56.1406 43.8383 56.9418 43.8323L58.8756 43.8177C59.6767 43.8115 60.3309 44.456 60.337 45.257C60.343 46.0581 59.6989 46.7125 58.8977 46.7183Z" fill="#E1B872"/>
</g>
<defs>
<clipPath id="clip0_104_2693">
<rect width="86" height="86" fill="white"/>
</clipPath>
</defs>
</svg>
