<svg width="26" height="27" viewBox="0 0 26 27" fill="none" xmlns="http://www.w3.org/2000/svg">
<path d="M11.6667 21.2218C13.5896 21.2214 15.457 20.5776 16.9718 19.3931L21.7341 24.1554L23.2659 22.6236L18.5036 17.8613C19.6888 16.3464 20.3329 14.4785 20.3333 12.5551C20.3333 7.77651 16.4453 3.88843 11.6667 3.88843C6.88808 3.88843 3 7.77651 3 12.5551C3 17.3337 6.88808 21.2218 11.6667 21.2218ZM11.6667 6.05509C15.2514 6.05509 18.1667 8.97034 18.1667 12.5551C18.1667 16.1398 15.2514 19.0551 11.6667 19.0551C8.08192 19.0551 5.16667 16.1398 5.16667 12.5551C5.16667 8.97034 8.08192 6.05509 11.6667 6.05509Z" fill="#A66253"/>
</svg>
