<svg width="35" height="35" viewBox="0 0 35 35" fill="none" xmlns="http://www.w3.org/2000/svg">
<g clip-path="url(#clip0_69_1553)">
<path d="M4.89734 16.9944L4.92762 20.9688C4.92796 21.0114 4.92981 21.0535 4.9307 21.0959C4.93166 21.1344 4.93213 21.1729 4.93343 21.2114C5.04431 24.7872 6.99323 27.8931 9.86268 29.6241L9.87724 29.624C11.4334 30.563 13.259 31.0975 15.2082 31.0826L17.5975 31.0644L30.0814 16.8022L4.89734 16.9944Z" fill="#535572"/>
<path d="M17.4895 16.8983L17.5976 31.0643L19.9869 31.0461C21.9361 31.0312 23.7533 30.4689 25.295 29.5062L25.3095 29.5061C28.1522 27.7316 30.0535 24.5962 30.1098 21.0191C30.1105 20.9807 30.1105 20.9421 30.1109 20.9036C30.1111 20.8612 30.1124 20.819 30.112 20.7764L30.0818 16.802L17.4895 16.8983Z" fill="#46475A"/>
<path d="M23.4509 28.2679C23.0347 27.7887 22.5618 27.3604 22.0424 26.9935C20.7442 26.0763 19.157 25.5423 17.4463 25.5553C15.7355 25.5684 14.1566 26.1266 12.8726 27.0636C12.3589 27.4384 11.8926 27.8739 11.4838 28.3593C10.3624 29.6912 9.67494 31.3994 9.63782 33.2649C10.3985 33.6254 11.1885 33.9336 12.0028 34.1867C12.233 34.2582 12.4652 34.3252 12.6992 34.3876C12.7299 34.3958 12.7607 34.4038 12.7915 34.4119C14.3002 34.8062 15.8846 35.0118 17.5183 34.9995C19.1521 34.9871 20.7332 34.7571 22.2356 34.3399C22.2663 34.3315 22.297 34.323 22.3275 34.3143C22.5606 34.2483 22.7917 34.1776 23.0208 34.1027C23.4198 33.9719 23.8119 33.8264 24.1981 33.6694C24.4338 33.5736 24.6678 33.4745 24.8985 33.3691C25.0573 33.2964 25.2151 33.222 25.3714 33.1449C25.306 31.28 24.5925 29.5826 23.4509 28.2679Z" fill="#E8C6B3"/>
<path opacity="0.3" d="M19.4986 30.5771C19.2366 30.5748 18.9832 30.609 18.743 30.675C17.9195 30.901 17.0547 30.9076 16.2279 30.6942C15.9867 30.6319 15.7328 30.6015 15.4709 30.6078C13.9808 30.6437 12.7729 31.9488 12.7843 33.4393L12.7844 33.4613L12.7916 34.4118C14.3003 34.8061 15.8847 35.0117 17.5185 34.9993C19.1523 34.9869 20.7333 34.757 22.2358 34.3398L22.2285 33.3893L22.2284 33.3673C22.2169 31.8768 20.9891 30.5903 19.4986 30.5771Z" fill="#AB5034"/>
<path d="M11.4838 28.3593C10.3624 29.6912 9.67494 31.3993 9.63782 33.2649C10.3985 33.6254 11.1885 33.9335 12.0028 34.1866C12.233 34.2582 12.4652 34.3251 12.6992 34.3876C12.7299 34.3958 12.7607 34.4038 12.7915 34.4119L12.7812 33.0678C12.7682 31.3492 12.2966 29.7413 11.4838 28.3593Z" fill="#CE9276"/>
<path d="M23.4509 28.2679C23.2355 28.6472 23.046 29.0431 22.884 29.4528C22.4506 30.5488 22.2158 31.7446 22.2254 32.9958L22.2356 34.3398C22.2663 34.3313 22.297 34.3228 22.3276 34.3141C22.5606 34.2481 22.7917 34.1775 23.0209 34.1025C23.4198 33.9718 23.8119 33.8262 24.1981 33.6692C24.4338 33.5735 24.6679 33.4743 24.8985 33.3689C25.0573 33.2963 25.2151 33.2218 25.3715 33.1448C25.3059 31.28 24.5925 29.5826 23.4509 28.2679Z" fill="#CE9276"/>
<path opacity="0.3" d="M23.4509 28.2679C23.0348 27.7887 22.5619 27.3604 22.0425 26.9935C20.7443 26.0763 19.1571 25.5423 17.4463 25.5553C15.7356 25.5684 14.1567 26.1266 12.8727 27.0636C13.9651 28.3888 15.623 29.2292 17.4743 29.215C18.5211 29.207 19.502 28.9268 20.3507 28.4422C20.959 28.095 21.7294 28.1944 22.2251 28.6891C22.4631 28.9267 22.6835 29.1821 22.8841 29.4529C23.6976 30.5512 24.1848 31.906 24.1959 33.3743L24.1982 33.6693C24.4339 33.5735 24.6679 33.4744 24.8986 33.3689C25.0574 33.2963 25.2152 33.2218 25.3716 33.1448C25.306 31.28 24.5925 29.5826 23.4509 28.2679Z" fill="#AB5034"/>
<path d="M7.51824 14.1406L11.7882 26.3214C13.4771 27.3476 15.4627 27.9326 17.5841 27.9163C22.5776 27.8782 26.7691 24.5233 28.0872 19.9586C28.5787 20.2106 29.1354 20.3513 29.7256 20.3467C31.7246 20.3315 33.3245 18.6625 33.2368 16.6483C33.1763 15.2569 32.2966 14.0611 31.0689 13.5416C30.7471 13.4054 30.4019 13.315 30.0408 13.2805C30.0014 13.2762 29.9612 13.2733 29.9211 13.2705L24.7578 8.18546C21.8111 5.28347 17.0698 5.31963 14.1678 8.26626L13.297 8.27289C10.081 8.29729 7.49363 10.9244 7.51824 14.1406Z" fill="#E1B872"/>
<path d="M26.1481 15.6517C26.1481 15.6503 26.1481 15.6489 26.1481 15.6476C26.1463 15.4212 25.9541 15.2447 25.7277 15.2522C25.6454 15.2549 25.5632 15.2566 25.4809 15.2572C23.0404 15.2759 20.629 14.3993 18.775 12.7701C18.7447 12.7441 18.7152 12.7173 18.6848 12.6895C18.5739 12.59 18.4665 12.4891 18.3654 12.3896C17.8047 11.8415 17.1711 11.2229 16.7461 10.8134C16.1684 10.2563 15.0149 9.81803 13.7392 10.0936C12.0842 10.4512 10.7115 11.8865 9.76809 14.2452C9.5248 14.8534 8.81796 15.1812 8.21155 14.9332C7.85546 14.7876 7.60944 14.487 7.51804 14.1407C7.29492 14.0464 7.07289 13.9212 6.88039 13.8218C6.39682 13.5808 5.85199 13.4456 5.27429 13.45C5.19164 13.4506 5.109 13.4544 5.02485 13.4605C3.23226 13.5978 1.81196 15.0914 1.7611 16.8887C1.70402 18.9039 3.32926 20.5483 5.32829 20.5331C5.91857 20.5286 6.4731 20.3796 6.96064 20.1201C7.75874 22.7338 9.50142 24.9324 11.788 26.3217C12.9566 26.6106 14.1182 26.7624 15.2139 26.7541C21.2992 26.7074 26.1945 21.7368 26.1481 15.6517Z" fill="#ECCE93"/>
<path d="M5.30153 18.1717C5.95354 18.1717 6.4821 17.6432 6.4821 16.9912C6.4821 16.3392 5.95354 15.8106 5.30153 15.8106C4.64953 15.8106 4.12097 16.3392 4.12097 16.9912C4.12097 17.6432 4.64953 18.1717 5.30153 18.1717Z" fill="#E1B872"/>
<path d="M29.6986 17.986C30.3506 17.986 30.8792 17.4575 30.8792 16.8054C30.8792 16.1534 30.3506 15.6249 29.6986 15.6249C29.0466 15.6249 28.5181 16.1534 28.5181 16.8054C28.5181 17.4575 29.0466 17.986 29.6986 17.986Z" fill="#D5A150"/>
<path d="M19.3538 0.111291C17.3663 -0.431618 15.4118 1.08117 15.4274 3.1407C12.6021 3.16223 10.053 4.3268 8.21612 6.1928C6.37842 8.05798 5.25282 10.6245 5.27435 13.4498C5.85206 13.4454 6.39688 13.5805 6.88045 13.8216C7.46759 14.1249 8.3296 14.6693 8.65848 13.8404C11.0964 7.70005 15.8167 8.27714 17.5651 9.96309C17.9655 10.3488 18.5522 10.9213 19.1937 11.5484C19.2865 11.6398 19.3816 11.7288 19.4783 11.8153C19.5013 11.8365 19.5251 11.8575 19.5489 11.8785C21.6161 13.6981 24.408 14.4418 27.0894 13.913C27.5413 13.8237 27.9784 13.6756 28.4077 13.507C28.8723 13.3249 29.384 13.2375 29.921 13.2704C29.9611 13.2732 30.0013 13.276 30.0407 13.2804L30.0429 13.2607C29.658 6.93901 25.2461 1.7191 19.3538 0.111291Z" fill="#46475A"/>
<path d="M28.076 12.3894C28.951 12.1467 29.5885 12.1181 29.9297 12.1302C29.1203 6.32286 24.8909 1.6222 19.3537 0.111258C18.133 -0.222198 16.9255 0.220565 16.1786 1.08852C16.1541 1.18956 16.1371 1.29353 16.1292 1.40004L17.9768 7.17373L17.9852 7.20558C18.3344 8.52984 19.0385 9.74028 20.0222 10.7071C20.0987 10.7825 20.1809 10.8595 20.2662 10.9361L20.2762 10.9451C20.2944 10.9619 20.3133 10.9785 20.3289 10.9923C21.742 12.2361 23.5577 12.9132 25.4415 12.8988C25.9169 12.8952 26.4059 12.8925 26.8607 12.7547C27.3617 12.6032 27.7435 12.4816 28.076 12.3894Z" fill="#535572"/>
<path d="M6.81606 12.5184C7.35849 12.7043 7.95602 12.4706 8.22781 11.9657C8.89931 10.7184 9.71552 9.72313 10.665 8.99613C11.8029 8.1249 13.121 7.65889 14.4769 7.6485C15.1338 7.64344 15.7857 7.74837 16.3921 7.94716C16.662 8.03562 16.9183 7.78843 16.8457 7.51383C16.845 7.51137 16.8444 7.50905 16.8437 7.50659L15.4275 3.14069C12.6021 3.16222 10.0531 4.32679 8.21619 6.19279C6.78892 7.64139 5.7919 9.5132 5.42768 11.6006C5.36773 11.9443 5.60261 12.267 5.94837 12.3141C6.24163 12.354 6.52922 12.4214 6.80977 12.5163L6.81606 12.5184Z" fill="#656890"/>
<path d="M14.8119 12.9902C13.9756 12.725 13.0927 12.7317 12.2587 13.0098C11.9494 13.1129 11.7824 13.4472 11.8854 13.7565C11.9683 14.0053 12.201 14.1621 12.4497 14.1602C12.5102 14.1598 12.5716 14.15 12.632 14.1297C13.2277 13.9312 13.858 13.9262 14.4549 14.1155C14.7652 14.214 15.0974 14.0422 15.196 13.7313C15.2946 13.4205 15.1227 13.0887 14.8119 12.9902Z" fill="#46475A"/>
<path d="M22.682 12.9301C21.8456 12.6649 20.9628 12.6716 20.1289 12.9497C19.8195 13.0528 19.6525 13.3872 19.7556 13.6964C19.8384 13.9452 20.0711 14.1021 20.3199 14.1001C20.3804 14.0997 20.4417 14.0899 20.5021 14.0697C21.098 13.871 21.7283 13.8662 22.325 14.0554C22.6353 14.1539 22.9675 13.9821 23.0661 13.6712C23.1647 13.3604 22.9927 13.0287 22.682 12.9301Z" fill="#46475A"/>
<path d="M13.5653 18.1087C14.2173 18.1087 14.7459 17.5802 14.7459 16.9282C14.7459 16.2762 14.2173 15.7476 13.5653 15.7476C12.9133 15.7476 12.3848 16.2762 12.3848 16.9282C12.3848 17.5802 12.9133 18.1087 13.5653 18.1087Z" fill="#474641"/>
<path d="M21.4347 18.0489C22.0867 18.0489 22.6153 17.5204 22.6153 16.8684C22.6153 16.2164 22.0867 15.6878 21.4347 15.6878C20.7827 15.6878 20.2542 16.2164 20.2542 16.8684C20.2542 17.5204 20.7827 18.0489 21.4347 18.0489Z" fill="#474641"/>
<path d="M17.5262 20.3133C17.0532 20.3169 16.6071 20.1361 16.2701 19.8042C16.0378 19.5754 16.035 19.2017 16.2638 18.9694C16.4925 18.7372 16.8662 18.7344 17.0985 18.9631C17.2108 19.0738 17.3595 19.1341 17.5171 19.1328C17.6748 19.1316 17.8226 19.069 17.9332 18.9567C18.162 18.7245 18.5357 18.7216 18.7679 18.9504C19.0003 19.1792 19.0031 19.5528 18.7743 19.7852C18.4424 20.1221 17.9991 20.3097 17.5262 20.3133Z" fill="#8D472E"/>
<path d="M11.8501 19.1057L11.0631 19.1117C10.7371 19.1142 10.4709 18.8519 10.4684 18.5259C10.4659 18.1999 10.7281 17.9337 11.0542 17.9312L11.8412 17.9252C12.1672 17.9227 12.4335 18.185 12.4359 18.511C12.4384 18.837 12.1762 19.1033 11.8501 19.1057Z" fill="#E1B872"/>
<path d="M23.97 19.0132L23.183 19.0192C22.857 19.0217 22.5907 18.7594 22.5883 18.4334C22.5857 18.1074 22.848 17.8411 23.174 17.8387L23.9611 17.8327C24.2871 17.8302 24.5533 18.0925 24.5558 18.4185C24.5583 18.7445 24.2961 19.0108 23.97 19.0132Z" fill="#E1B872"/>
</g>
<defs>
<clipPath id="clip0_69_1553">
<rect width="35" height="35" fill="white"/>
</clipPath>
</defs>
</svg>
